<?xml version="1.0" encoding="utf-8"?>
<!-- Generator: Adobe Illustrator 16.0.0, SVG Export Plug-In . SVG Version: 6.00 Build 0)  -->
<!DOCTYPE svg PUBLIC "-//W3C//DTD SVG 1.1//EN" "http://www.w3.org/Graphics/SVG/1.1/DTD/svg11.dtd">
<svg version="1.1" id="Ebene_1" xmlns="http://www.w3.org/2000/svg" xmlns:xlink="http://www.w3.org/1999/xlink" x="0px" y="0px"
	 width="164.978px" height="233.449px" viewBox="338.453 121.39 164.978 233.449"
	 enable-background="new 338.453 121.39 164.978 233.449" xml:space="preserve">
<path fill="#A53434" d="M501.32,265.809c0,0-2.93,13.806-5.25,17.832c-1.723,2.987-9.5,10-9.5,10s-70.435,44.441-96,55
	c-4.6,1.899-14.524,3.911-19.5,4c-4.001,0.071-12.022-2.02-15.5-4c-4.242-2.416-10.569-10.517-12.5-15
	c-2.091-4.855-3.768-15.866-2.5-21c1.167-4.727,5.937-13.683,9.5-17c17.886-16.653,84.584-49,84.584-49V121.39h66.666V265.809z"/>
<path d="M503.427,121.39h-70.625v123.256l-78.3,45.203l0.048,0.081c-15.639,10.14-20.807,30.911-11.382,47.237
	c4.719,8.172,12.334,14.006,21.439,16.453c3.048,0.817,6.134,1.219,9.201,1.219c5.52,0,10.967-1.313,15.978-3.871l0.028,0.047
	l1.586-0.909h0.005l0,0l94.364-54.479c10.682-6.162,17.254-17.172,17.639-29.497h0.023L503.427,121.39L503.427,121.39z
	 M499.755,125.071v5.257H436.48v-5.257H499.755z M436.48,246.76V134h63.275v108.212c-5.844,0.157-11.543,1.776-16.639,4.705
	c-8.168,4.719-14.014,12.334-16.455,21.439c-2.447,9.115-1.189,18.63,3.523,26.807c0.764,1.3,1.619,2.539,2.527,3.729
	l-81.552,47.095l-31.645-54.794L436.48,246.76z M365.574,350.068c-8.163-2.187-14.987-7.425-19.216-14.744
	c-8.415-14.563-3.853-33.088,10.034-42.212l31.55,54.646C380.999,351.24,373.132,352.101,365.574,350.068z M483.935,292.43l-8,4.624
	c-0.93-1.186-1.805-2.414-2.568-3.724c-4.223-7.314-5.348-15.844-3.162-24.011c2.195-8.163,7.43-14.982,14.75-19.207
	c4.533-2.619,9.623-4.062,14.801-4.229v19.825h-0.01C499.503,276.872,493.587,286.858,483.935,292.43z"/>
</svg>
