<?xml version="1.0" encoding="utf-8"?>
<!-- Generator: Adobe Illustrator 16.0.0, SVG Export Plug-In . SVG Version: 6.00 Build 0)  -->
<!DOCTYPE svg PUBLIC "-//W3C//DTD SVG 1.1//EN" "http://www.w3.org/Graphics/SVG/1.1/DTD/svg11.dtd">
<svg version="1.1" id="Ebene_1" xmlns="http://www.w3.org/2000/svg" xmlns:xlink="http://www.w3.org/1999/xlink" x="0px" y="0px"
	 width="163.732px" height="130.013px" viewBox="338.443 173.289 163.732 130.013"
	 enable-background="new 338.443 173.289 163.732 130.013" xml:space="preserve">
<path fill="#DD2C2C" d="M496.779,231.311c-11.33,12.783-22,16.667-22,16.667s-11-14-5.668-33.504
	c3.418-12.503,17.094-18.666,18.666-19.333c3.279-1.392,12.668-2.667,12.668-2.667S503.271,223.984,496.779,231.311z"/>
<path fill="#DD2C2C" d="M368.445,300.883c-13-0.575-20.667-10.906-20.667-10.906s-11-14-5.668-33.504
	c3.418-12.503,17.095-18.666,18.667-19.333c3.279-1.392,74.002-43.164,74.002-43.164s-1.775-5.979,0-18.667
	c0.334-2.379,69.77-2.99,67.334,0c-1.014,1.242,0.514,25.81-0.668,42c-0.543,7.452-3.885,13.377-4.332,14
	c-7.201,10-103.183,63.914-105.668,65C375.445,303.302,373.299,301.098,368.445,300.883z"/>
<path d="M503.447,172.931h-70.625v20.173l-78.296,45.208l0.043,0.076c-7.344,4.758-12.625,11.934-14.906,20.444
	c-2.443,9.115-1.191,18.63,3.528,26.797c4.715,8.167,12.33,14,21.445,16.454c3.043,0.818,6.124,1.219,9.196,1.219
	c5.52,0,10.972-1.317,15.977-3.877l0.029,0.049l1.586-0.909l0,0l0,0l94.359-54.472c10.678-6.167,17.244-17.182,17.635-29.502h0.029
	V172.931L503.447,172.931z M499.779,176.603v5.257h-63.281v-5.257H499.779z M436.498,195.223v-9.677h63.281v5.134
	c-5.838,0.157-11.549,1.771-16.639,4.705c-8.168,4.719-14.012,12.334-16.459,21.439c-2.438,9.115-1.182,18.635,3.529,26.797
	c0.758,1.305,1.619,2.543,2.533,3.733l-81.554,47.099l-31.64-54.803L436.498,195.223z M365.588,298.535
	c-8.163-2.185-14.982-7.428-19.206-14.748c-4.229-7.305-5.357-15.834-3.162-24.006c2.029-7.563,6.701-13.953,13.196-18.206
	l31.55,54.647C381.023,299.707,373.156,300.55,365.588,298.535z M483.949,240.889l-8.004,4.629c-0.924-1.181-1.807-2.415-2.559-3.72
	c-4.229-7.329-5.348-15.858-3.162-24.011c2.186-8.153,7.43-14.982,14.74-19.207c4.537-2.619,9.629-4.067,14.805-4.229v19.825h-0.01
	C499.521,225.33,493.613,235.316,483.949,240.889z"/>
</svg>
